<?xml version="1.0" encoding="UTF-8"?>
<!DOCTYPE svg PUBLIC "-//W3C//DTD SVG 1.1//EN" "http://www.w3.org/Graphics/SVG/1.1/DTD/svg11.dtd">
<!-- Creator: CorelDRAW -->
<?xml-stylesheet href="+9.css" type="text/css"?>
<svg xmlns="http://www.w3.org/2000/svg" xml:space="preserve" width="30.48mm" height="54.1866mm" version="1.1" style="shape-rendering:geometricPrecision; text-rendering:geometricPrecision; image-rendering:optimizeQuality; fill-rule:evenodd; clip-rule:evenodd"
viewBox="0 0 3048 5418.66"
 xmlns:xlink="http://www.w3.org/1999/xlink"
 xmlns:xodm="http://www.corel.com/coreldraw/odm/2003">
 <defs>
     <clipPath id="id0">
      <path d="M1060.63 2577.53l775.73 0 0 545.76 -775.73 0 0 -545.76z"/>
     </clipPath>
    <clipPath id="id1" style="clip-rule:nonzero">
     <path d="M1258.42 2577.14l26.93 -161.04 -53.46 0 5.78 -34.61 149.08 0 -5.78 34.61 -52.47 0 -27 161.04 -43.08 0zm287.86 0l-42.49 0c-0.27,-3.48 -0.4,-6.3 -0.4,-8.47 0,-9.33 1.12,-20.56 3.42,-33.69 -6.37,14.64 -15.63,26.14 -27.65,34.54 -12.09,8.41 -25.35,12.61 -39.87,12.61 -17.47,0 -31.65,-5.38 -42.62,-16.22 -10.97,-10.84 -16.42,-24.23 -16.42,-40.13 0,-21.93 9.79,-39.4 29.29,-52.34 19.57,-12.94 50.24,-19.44 91.88,-19.44 5.39,0 11.69,0.26 18.85,0.79 0.92,-5.91 1.38,-10.58 1.38,-14.06 0,-10.5 -3.61,-18.45 -10.9,-23.84 -7.23,-5.38 -16.23,-8.14 -27,-8.14 -20.68,0 -35.72,9.06 -45.25,27.19l-38.48 -12.15c16.22,-31.79 44.72,-47.75 85.64,-47.75 24.36,0 43.61,5.52 57.73,16.55 14.12,11.04 21.14,25.75 21.14,44.07 0,7.82 -3.08,28.5 -9.19,62 -6.57,35.27 -9.85,57.66 -9.85,67.12 0,3.48 0.26,7.22 0.79,11.36zm-29.82 -99.89c-33.49,1.84 -56.74,6.24 -69.88,13.33 -13.07,7.03 -19.57,17.34 -19.57,30.93 0,7.82 2.63,14.25 7.88,19.18 5.26,4.93 12.41,7.42 21.54,7.42 13.07,0 25.22,-5.78 36.39,-17.27 11.1,-11.43 19.04,-29.29 23.64,-53.59zm76.57 99.89l32.71 -195.65 153.55 0 -32.71 195.65 -43.08 0 27.52 -164.32 -67.32 0 -27.52 164.32 -43.15 0z"/>
    </clipPath>
 <linearGradient id="id2" gradientUnits="objectBoundingBox" x1="124.317%" y1="0%" x2="10.398%" y2="93.7538%">
  <stop offset="0" style="stop-opacity:1; stop-color:#FFB514"/>
  <stop offset="1" style="stop-opacity:1; stop-color:#E61882"/>
 </linearGradient>
 </defs>
 <g id="Слой_x0020_1">
  <metadata id="CorelCorpID_0Corel-Layer"/>
  <g id="_1668304304">
   <circle class="fil0" cx="1524" cy="2709.33" r="525"/>
   <g>
    <g style="clip-path:url(#id0)">
     <image x="1060.63" y="2577.53" width="775.73" height="545.76" xlink:href="+9_Images\+9_ImgID1.png"/>
    </g>
   </g>
   <polygon class="fil1" points="1419.68,2820.95 1419.68,2876.87 1299.45,2876.87 1299.45,3001.2 1243.83,3001.2 1243.83,2876.87 1123.6,2876.87 1123.6,2820.95 1243.83,2820.95 1243.83,2696.33 1299.45,2696.33 1299.45,2820.95 "/>
   <path id="_1" class="fil1" d="M1520.64 2959.06c14.48,31.05 37.35,46.53 68.81,46.53 30.76,0 56.02,-15.28 75.59,-45.63 19.57,-30.46 32.36,-69.21 38.15,-116.14 -22.57,43.04 -56.52,64.61 -101.76,64.61 -33.75,0 -61.81,-11.58 -84.28,-34.65 -22.37,-23.07 -33.65,-52.73 -33.65,-88.78 0,-40.34 13.58,-74.59 40.64,-102.55 27.16,-27.96 62.51,-41.95 106.25,-41.95 39.75,0 73.6,14.68 101.36,44.14 27.76,29.46 41.64,71.4 41.64,125.83 0,62.81 -16.88,120.13 -50.73,171.96 -33.85,51.92 -79.29,77.89 -136.51,77.89 -32.35,0 -59.61,-8.09 -81.68,-24.17 -22.17,-16.08 -36.85,-35.15 -44.04,-57.22l60.21 -19.87zm101.86 -107.35c22.07,0 40.55,-8.39 55.42,-25.07 14.88,-16.67 22.37,-36.15 22.37,-58.31 0,-20.28 -6.99,-37.55 -20.87,-51.63 -13.98,-14.18 -30.75,-21.27 -50.53,-21.27 -21.97,0 -40.54,8.19 -55.52,24.56 -15.08,16.38 -22.57,35.65 -22.57,57.72 0,21.17 6.89,38.85 20.67,52.93 13.68,13.98 30.76,21.07 51.03,21.07z"/>
   <g style="clip-path:url(#id1)">
    <image x="1231.89" y="2577.53" width="547.4" height="4.6" xlink:href="+9_Images\+9_ImgID2.png"/>
   </g>
  </g>
 </g>
</svg>
