<?xml version="1.0" encoding="UTF-8"?>
<!DOCTYPE svg PUBLIC "-//W3C//DTD SVG 1.1//EN" "http://www.w3.org/Graphics/SVG/1.1/DTD/svg11.dtd">
<!-- Creator: CorelDRAW -->
<svg xmlns="http://www.w3.org/2000/svg" xml:space="preserve" width="30.48mm" height="54.1866mm" version="1.1" style="shape-rendering:geometricPrecision; text-rendering:geometricPrecision; image-rendering:optimizeQuality; fill-rule:evenodd; clip-rule:evenodd"
viewBox="0 0 3048 5418.66"
 xmlns:xlink="http://www.w3.org/1999/xlink"
 xmlns:xodm="http://www.corel.com/coreldraw/odm/2003">
 <defs>
  <style type="text/css">
   <![CDATA[
    .fil0 {fill:#F9F7D7;fill-rule:nonzero}
   ]]>
  </style>
   <mask id="id0">
  <linearGradient id="id1" gradientUnits="userSpaceOnUse" x1="1830.65" y1="2019.12" x2="756.3" y2="3458.66">
   <stop offset="0" style="stop-opacity:1; stop-color:white"/>
   <stop offset="0.101961" style="stop-opacity:0.584314; stop-color:white"/>
   <stop offset="1" style="stop-opacity:0.168627; stop-color:white"/>
  </linearGradient>
    <rect style="fill:url(#id1)" x="205.3" y="2482.28" width="2637.4" height="454.1"/>
   </mask>
 </defs>
 <g id="Слой_x0020_1">
  <metadata id="CorelCorpID_0Corel-Layer"/>
  <path class="fil0" style="mask:url(#id0)" d="M2667.16 2808.91l0 113.31c0,9.41 -3.54,14.16 -10.61,14.16 -7.08,0 -10.62,-4.75 -10.62,-14.16l0 -280.82c0,-27.1 2.07,-48.42 6.3,-63.78 4.23,-15.45 13.46,-28.65 27.7,-39.61 14.33,-10.96 31.5,-16.4 51.53,-16.4 23.82,0 43.06,7.17 57.73,21.41 14.59,14.24 21.92,31.41 21.92,51.69 0,31.5 -20.62,54.97 -61.88,70.25 30.9,2.93 54.2,12.17 69.91,27.87 15.71,15.63 23.56,34.35 23.56,56.1 0,27.36 -9.15,50.57 -27.44,69.65 -18.21,19.16 -40.31,28.73 -66.28,28.73 -27.28,0 -54.55,-12.77 -81.82,-38.4zm51.27 -128.33l0 -25.89c20.36,-2.5 37.36,-9.49 51,-20.8 13.64,-11.3 20.45,-24.42 20.45,-39.27 0,-15.62 -5.26,-28.13 -15.88,-37.54 -10.61,-9.49 -25.02,-14.24 -43.32,-14.24 -20.02,0 -35.56,6.3 -46.78,18.9 -11.13,12.52 -16.74,35.21 -16.74,67.92l0 109.86c0,18.39 1.99,32.45 6.04,42.12 4.06,9.75 13.47,19.59 28.31,29.51 14.84,9.93 31.24,14.93 49.28,14.93 21.83,0 39.09,-7.59 51.78,-22.78 12.6,-15.19 18.9,-32.88 18.9,-53.16 0,-24.25 -9.58,-41.94 -28.83,-52.99 -19.24,-11.05 -44.01,-16.57 -74.21,-16.57zm-2513.13 -97.33l41.95 0 68.78 193.67 3.8 0 68.78 -193.67 39.87 0 -82.33 225.77 -58.51 0 -82.34 -225.77zm481.57 84.93c-1.82,-17.18 -7.6,-30.47 -17.18,-39.79 -9.58,-9.41 -22.35,-14.07 -38.14,-14.07 -15.37,0 -28.14,4.75 -38.49,14.16 -10.36,9.4 -17.26,22.69 -20.63,39.7l114.44 0zm-15.02 91.65l46.08 0c-2.67,16.48 -11.22,29.43 -25.54,38.75 -14.33,9.4 -32.71,14.06 -55.32,14.06 -33.66,0 -60.07,-10.27 -79.05,-30.89 -19.08,-20.54 -28.57,-49.28 -28.57,-86.22 0,-35.98 9.41,-64.21 28.31,-84.92 18.81,-20.62 44.44,-30.98 76.81,-30.98 30.12,0 53.42,10.53 69.73,31.67 16.31,21.06 24.51,51.27 24.51,90.53l0 1.56 -156.38 0 0 2.5c0,22.09 5.7,39.35 17.17,51.78 11.48,12.51 27.19,18.73 47.12,18.73 9.58,0 17.35,-1.38 23.22,-4.14 5.95,-2.77 9.92,-6.91 11.91,-12.43zm193.14 -176.58l38.32 0 0 26.59c8.28,-10.02 17.6,-17.44 27.96,-22.36 10.36,-4.92 21.75,-7.33 34.18,-7.33 20.62,0 36.59,6.04 48.07,18.21 11.47,12.17 17.17,29.25 17.17,51.17l0 1.56 -38.84 0 0 -3.02c0,-10.36 -2.41,-18.38 -7.33,-24.08 -4.92,-5.78 -11.74,-8.63 -20.46,-8.63 -18.38,0 -33.13,8.28 -44.18,24.94 -11.05,16.57 -16.57,39.18 -16.57,67.92l0 100.8 -38.32 0 0 -225.77zm333.47 168.29c1.81,8.46 6.82,14.76 14.93,18.99 8.02,4.23 19.5,6.39 34.35,6.39 18.55,0 32.36,-2.59 41.51,-7.69 9.23,-5.17 13.81,-12.94 13.81,-23.38 0,-6.82 -2.25,-12.09 -6.74,-15.88 -4.48,-3.8 -13.8,-7.6 -28.04,-11.48l-35.04 -9.84c-22.96,-6.39 -39.79,-14.76 -50.4,-25.03 -10.62,-10.27 -15.97,-23.38 -15.97,-39.26 0,-21.92 7.68,-38.15 23.13,-48.76 15.45,-10.62 38.92,-15.97 70.51,-15.97 24.51,0 43.06,5.44 55.66,16.22 12.69,10.88 19.16,26.84 19.51,47.99l-38.84 0.26c-0.86,-10.88 -4.49,-18.47 -10.87,-22.79 -6.39,-4.31 -17.69,-6.47 -33.83,-6.47 -15.45,0 -27.1,2.33 -34.78,6.99 -7.77,4.66 -11.65,11.65 -11.65,21.15 0,7.42 2.76,13.29 8.37,17.69 5.52,4.4 17,8.8 34.52,13.2l33.57 8.8c19.94,5.1 35.13,12.86 45.57,23.31 10.44,10.44 15.71,22.87 15.71,37.36 0,21.58 -8.2,38.58 -24.51,50.84 -16.4,12.34 -38.93,18.46 -67.75,18.46 -29.17,0 -51.09,-4.83 -65.68,-14.58 -14.58,-9.75 -23.21,-25.2 -25.89,-46.52l38.84 0zm369.71 -128.41l-69.38 0 0 -36.77 110.29 0 0 222.66 -40.91 0 0 -185.89zm-15.01 -140.85l56.96 0 0 51.27 -56.96 0 0 -51.27zm322.5 294.64c20.2,0 36.25,-7.25 48.33,-21.84 12,-14.58 18.04,-34.17 18.04,-58.86 0,-24.76 -6.04,-44.44 -18.21,-59.03 -12.08,-14.58 -28.13,-21.83 -48.16,-21.83 -20.1,0 -36.07,7.25 -48.15,21.83 -12,14.59 -18.04,34.27 -18.04,59.03 0,24.69 6.04,44.28 18.04,58.86 12.08,14.59 28.05,21.84 48.15,21.84zm106.76 -80.7c0,35.13 -9.75,63.26 -29.34,84.58 -19.59,21.23 -45.4,31.84 -77.42,31.84 -31.93,0 -57.65,-10.61 -77.24,-31.84 -19.59,-21.32 -29.34,-49.45 -29.34,-84.58 0,-35.03 9.84,-63.34 29.52,-84.83 19.59,-21.49 45.31,-32.28 77.06,-32.28 32.02,0 57.83,10.7 77.42,32.11 19.59,21.49 29.34,49.79 29.34,85zm105.63 -112.97l38.32 0 0 31.59c10.79,-11.48 22.27,-20.02 34.52,-25.72 12.17,-5.61 25.03,-8.45 38.49,-8.45 31.24,0 53.51,8.8 66.88,26.4 13.38,17.61 20.11,48.68 20.11,93.21l0 108.74 -38.32 0 0 -111.24c0,-31.68 -3.53,-53.34 -10.61,-64.99 -7.08,-11.65 -19.25,-17.43 -36.42,-17.43 -13.55,0 -25.55,2.85 -36.16,8.63 -10.7,5.7 -19.33,14.07 -26.06,25.03 -4.58,7.25 -7.77,15.62 -9.67,25.11 -1.81,9.49 -2.76,24.68 -2.76,45.4l0 6.55 0 82.94 -38.32 0 0 -225.77z"/>
 </g>
</svg>
